# xmcd
#
# Track frame offsets:
#	150
#	14007
#	28045
#	43387
#	57932
#	70232
#	80625
#	90445
#	103375
#	113250
#	127110
#	139490
#
# Disc length: 2008
#
# Revision: 2
# Processed by: cddbd v1.5.1PL0 Copyright (c) Steve Scherf et al.
# Submitted via: audiograbber 1.70
# Normalized: r1:DSETVAR1
#
DISCID=ae07d60c
DTITLE=Various Artist - Enganchados al Country
DYEAR=1900
DGENRE=
TTITLE0=Lynn Anderson - Pista  1
TTITLE1=Billy Jo Spears - Pista  2
TTITLE2=Melba Montgomery - No Charge
TTITLE3=Jeannie - Harper Valley Pta
TTITLE4=Faron Young - It's Four In The Morning
TTITLE5=George Hamilton IV - Abilene
TTITLE6=Hank Locklin - Please Help Me I'm Falling
TTITLE7=Claude King - Wolverton Mountain
TTITLE8=Ned Miller - From Jack to a King
TTITLE9=Jeannie Seely - One Day at a Time
TTITLE10=Bobby Helms - Fraulein
TTITLE11=Don Gibson - Oh, Lonesome me
EXTD=
EXTT0=
EXTT1=
EXTT2=
EXTT3=
EXTT4=
EXTT5=
EXTT6=
EXTT7=
EXTT8=
EXTT9=
EXTT10=
EXTT11=
PLAYORDER=
